<?xml version="1.0" standalone="no"?><!DOCTYPE svg PUBLIC "-//W3C//DTD SVG 1.1//EN" "http://www.w3.org/Graphics/SVG/1.1/DTD/svg11.dtd"><svg t="1657594476265" class="icon" viewBox="0 0 1024 1024" version="1.1" xmlns="http://www.w3.org/2000/svg" p-id="1629" width="16" height="16" xmlns:xlink="http://www.w3.org/1999/xlink"><defs><style type="text/css">@font-face { font-family: feedback-iconfont; src: url("//at.alicdn.com/t/font_1031158_u69w8yhxdu.woff2?t=1630033759944") format("woff2"), url("//at.alicdn.com/t/font_1031158_u69w8yhxdu.woff?t=1630033759944") format("woff"), url("//at.alicdn.com/t/font_1031158_u69w8yhxdu.ttf?t=1630033759944") format("truetype"); }
</style></defs><path d="M174.08 940.8a32 32 0 0 1-22.4-54.4l704-704a32 32 0 0 1 45.44 0 32 32 0 0 1 0 44.8l-704 704a32.64 32.64 0 0 1-23.04 9.6z" p-id="1630" fill="#2c2c2c"></path><path d="M878.08 940.8a31.36 31.36 0 0 1-22.4-9.6l-704-704a30.72 30.72 0 0 1 0-44.8 32 32 0 0 1 45.44 0l704 704a32 32 0 0 1 0 44.8 32.64 32.64 0 0 1-23.04 9.6z" p-id="1631" fill="#2c2c2c"></path></svg>